<?xml version="1.0" encoding="UTF-8" standalone="no"?>
<svg
   xmlns:dc="http://purl.org/dc/elements/1.1/"
   xmlns:cc="http://creativecommons.org/ns#"
   xmlns:rdf="http://www.w3.org/1999/02/22-rdf-syntax-ns#"
   xmlns:svg="http://www.w3.org/2000/svg"
   xmlns="http://www.w3.org/2000/svg"
   xmlns:sodipodi="http://sodipodi.sourceforge.net/DTD/sodipodi-0.dtd"
   xmlns:inkscape="http://www.inkscape.org/namespaces/inkscape"
   version="1.1"
   width="595.27557"
   height="841.88977"
   id="svg40"
   viewBox="0 0 595.27557 841.88977"
   sodipodi:docname="logo.svg"
   inkscape:export-filename="/home/mckatoo/Imagens/iKatoo/logo.png"
   inkscape:export-xdpi="96"
   inkscape:export-ydpi="96"
   inkscape:version="0.92.3 (2405546, 2018-03-11)">
  <metadata
     id="metadata46">
    <rdf:RDF>
      <cc:Work
         rdf:about="">
        <dc:format>image/svg+xml</dc:format>
        <dc:type
           rdf:resource="http://purl.org/dc/dcmitype/StillImage" />
        <dc:title></dc:title>
      </cc:Work>
    </rdf:RDF>
  </metadata>
  <defs
     id="defs44" />
  <sodipodi:namedview
     pagecolor="#ffffff"
     bordercolor="#666666"
     borderopacity="1"
     objecttolerance="10"
     gridtolerance="10"
     guidetolerance="10"
     inkscape:pageopacity="0"
     inkscape:pageshadow="2"
     inkscape:window-width="1366"
     inkscape:window-height="709"
     id="namedview42"
     showgrid="false"
     inkscape:zoom="1.5857392"
     inkscape:cx="51.765676"
     inkscape:cy="212.69879"
     inkscape:window-x="0"
     inkscape:window-y="0"
     inkscape:window-maximized="1"
     inkscape:current-layer="svg40" />
  <path
     style="fill:#003399;fill-opacity:1;stroke:none;stroke-width:1.37952757;stroke-miterlimit:4;stroke-dasharray:none;stroke-opacity:1"
     d="m 52.471838,518.93829 c -13.340028,0 -24.080078,10.74005 -24.080078,24.08008 v 121.28906 c 0,13.34003 10.74005,24.07812 24.080078,24.07812 H 173.76089 c 13.34003,0 24.08008,-10.73809 24.08008,-24.07812 V 543.01837 c 0,-13.34003 -10.74005,-24.08008 -24.08008,-24.08008 z m -2.740235,50.91992 h 38.527343 c 3.25529,0 5.91992,2.66268 5.91992,5.91797 v 4.39648 c 1.46823,-0.49057 3.0605,-0.75976 4.75977,-0.75976 7.432304,0 12.019544,5.38252 12.019514,12.09179 0,6.78507 -3.14686,10.8418 -7.69725,10.8418 -2.16143,0 -3.451794,-1.214 -3.603514,-3.48828 h -0.11329 c -1.17549,2.19851 -3.07089,3.48828 -5.23241,3.48828 -0.0447,0 -0.0886,-9.5e-4 -0.13282,-0.002 v 4.45898 c 0.84426,0.18786 1.7387,0.28125 2.67383,0.28125 2.08557,0 4.285044,-0.45471 6.029294,-1.40234 l 0.72071,2.27539 c -2.50271,1.25092 -4.664974,1.62891 -7.546874,1.62891 -0.63198,0 -1.25876,-0.0469 -1.87696,-0.13868 v 22.09961 c 0,3.25528 -2.66463,5.91797 -5.91992,5.91797 H 49.731603 c -3.255285,0 -5.919921,-2.66269 -5.919921,-5.91797 v -23.24609 h -4.253907 v -19.37695 h 4.253907 v -2.21094 c -0.09419,0.004 -0.189077,0.006 -0.285157,0.006 -2.390999,0 -4.060546,-1.30713 -4.060546,-3.0625 0,-1.82419 1.714533,-3.09766 4.060546,-3.09766 0.09632,0 0.191197,0.002 0.285157,0.006 v -4.78906 c 0,-3.25529 2.664636,-5.91797 5.919921,-5.91797 z m -5.919921,10.70703 v 6.14844 c 2.159394,-0.0981 3.77539,-1.30856 3.77539,-3.05664 0,-1.7507 -1.537911,-2.99445 -3.77539,-3.0918 z m 0,8.35938 v 19.37695 h 3.685547 v -19.37695 z m 50.367184,20.52343 v -2.64453 c -4.5306,-1.00829 -7.60351,-4.70693 -7.60351,-10.9375 0,-6.50309 3.28638,-11.2441 7.60351,-13.1289 v -2.56446 c -6.5592,2.19174 -10.63672,8.83333 -10.63672,15.95703 0,7.73167 4.91235,12.46851 10.63672,13.31836 z m 0,-26.71093 v 5.44531 c 1.47226,-1.00748 3.29126,-1.60352 5.4043,-1.60352 1.706364,0 3.715544,0.45488 4.777344,1.02344 l -1.32812,7.99609 c -0.1138,0.75808 -0.18946,1.40291 -0.18946,1.9336 0,1.36457 0.41805,2.00976 1.32813,2.00976 1.74434,0.0379 3.83007,-2.42673 3.83007,-7.77148 0,-5.5342 -3.1482,-9.93164 -9.556634,-9.93164 -1.47709,0 -2.92075,0.31131 -4.26563,0.89844 z m 0,5.44531 c -2.72881,1.86718 -4.26562,5.14703 -4.26562,8.66797 0,3.35316 1.72224,5.42429 4.26562,5.49414 z m 22.914054,-12.59766 h 4.42773 v 7.60938 h 9.06836 v 3.42187 h -9.06836 v 14.55078 c 0,2.18568 0.29448,3.58874 0.88477,4.21094 0.60625,0.62221 1.82741,0.9336 3.66211,0.9336 h 4.52148 v 3.68554 h -4.52148 c -3.39818,0 -5.74484,-0.63027 -7.03711,-1.89062 -1.29227,-1.27632 -1.9375,-3.58914 -1.9375,-6.93946 v -14.55078 h -3.23047 v -3.42187 h 3.23047 z m -65.001941,5.23438 v 45.68554 h 10.34375 v -14.59765 l 3.013671,-4.25586 8.628907,18.85351 H 85.897616 L 72.659338,600.50079 85.485506,580.81915 H 73.190588 l -7.978516,14.6582 c -0.886497,1.83214 -1.772161,3.60527 -2.599609,5.4375 h -0.177734 v -20.0957 z m 94.074211,1.97461 c 3.66246,0 6.53825,1.19166 8.6289,3.57226 2.09066,2.3806 3.13672,5.67684 3.13672,9.88867 0,4.19658 -1.04606,7.49281 -3.13672,9.88868 -2.09065,2.3806 -4.96644,3.57031 -8.6289,3.57031 -3.67773,0 -6.56169,-1.18971 -8.65235,-3.57031 -2.07539,-2.39587 -3.11328,-5.6921 -3.11328,-9.88868 0,-4.21183 1.03789,-7.50807 3.11328,-9.88867 2.09066,-2.3806 4.97462,-3.57226 8.65235,-3.57226 z m 28.83593,0 c 3.66247,0 6.53825,1.19166 8.62891,3.57226 2.09066,2.3806 3.13672,5.67684 3.13672,9.88867 0,4.19658 -1.04606,7.49281 -3.13672,9.88868 -2.09066,2.3806 -4.96644,3.57031 -8.62891,3.57031 -3.67772,0 -6.56364,-1.18971 -8.65429,-3.57031 -2.0754,-2.39587 -3.11133,-5.6921 -3.11133,-9.88868 0,-4.21183 1.03593,-7.50807 3.11133,-9.88867 2.09065,-2.3806 4.97657,-3.57226 8.65429,-3.57226 z m -28.83593,3.57226 c -2.25852,0 -4.04504,0.88411 -5.35743,2.6543 -1.31238,1.75493 -1.96875,4.16706 -1.96875,7.23437 0,3.06733 0.65015,5.48567 1.94727,7.25586 1.31238,1.75493 3.10513,2.63282 5.37891,2.63282 2.24326,0 4.01965,-0.88606 5.33203,-2.65625 1.31238,-1.77019 1.96875,-4.18037 1.96875,-7.23243 0,-3.03678 -0.65637,-5.44074 -1.96875,-7.21093 -1.31238,-1.78546 -3.08877,-2.67774 -5.33203,-2.67774 z m 28.83593,0 c -2.25852,0 -4.04504,0.88411 -5.35742,2.6543 -1.31238,1.75493 -1.96875,4.16706 -1.96875,7.23437 0,3.06733 0.64819,5.48567 1.94531,7.25586 1.31239,1.75493 3.10708,2.63282 5.38086,2.63282 2.24326,0 4.01966,-0.88606 5.33203,-2.65625 1.31239,-1.77019 1.96876,-4.18037 1.96876,-7.23243 -1e-5,-3.03678 -0.65637,-5.44074 -1.96876,-7.21093 -1.31238,-1.78546 -3.08877,-2.67774 -5.33203,-2.67774 z m -76.291004,3.47266 c -2.35098,0 -4.51172,2.87976 -4.51172,6.55664 0,1.51624 0.56896,2.46484 1.82032,2.46484 1.36514,0 2.7681,-1.93271 3.10937,-4.20703 l 0.75781,-4.625 c -0.30325,-0.15164 -0.72072,-0.18945 -1.17578,-0.18945 z"
     id="rect872"
     inkscape:connector-curvature="0"
     inkscape:export-xdpi="96"
     inkscape:export-ydpi="96" />
  <g
     id="Layer1000">
    <g
       id="Layer1001">
      <path
         d="m 445.2994,324.2088 c 14.6313,4.598 33.3379,5.3423 30.0714,37.51 19.7162,-3.0984 50.5449,-17.7613 29.4865,-39.0359 -15.126,-15.2815 -44.7306,-13.4811 -59.5579,1.5259 z"
         style="fill:#003399;fill-rule:evenodd"
         id="path2"
         inkscape:connector-curvature="0" />
      <path
         d="m 445.2994,324.2088 c 14.6313,4.598 33.3379,5.3423 30.0714,37.51 19.7162,-3.0984 50.5449,-17.7613 29.4865,-39.0359 -15.126,-15.2815 -44.7306,-13.4811 -59.5579,1.5259 z"
         style="fill:#003399;fill-rule:evenodd"
         id="path4"
         inkscape:connector-curvature="0" />
      <path
         d="m 432.3757,359.6562 c 8.479,13.5133 50.9328,10.5952 70.1622,0.5277 42.1084,-22.0452 8.7532,-42.2468 -2.1086,-44.2988 36.7172,29.2796 -8.8167,46.8475 -36.1984,49.9333 -15.0711,1.6983 -20.5852,-1.1326 -31.8552,-6.1622 z"
         style="fill:#003399;fill-rule:evenodd"
         id="path6"
         inkscape:connector-curvature="0" />
      <path
         d="m 468.7504,340.2136 c -5.4774,1.8856 -13.9122,6.6819 -18.093,9.4879 -3.1031,2.0829 -5.0196,3.872 -7.577,5.7323 -5.2668,3.8311 -2.9803,-3.6794 -8.0052,2.573 5.4435,6.1237 19.8658,6.6866 28.1316,5.8528 1.5502,-0.1564 3.8487,-0.3147 5.329,-0.5749 6.092,-1.0714 6.7182,-5.3983 4.8616,-15.2043 -0.6881,-3.6341 -2.1601,-8.9073 -5.6332,-9.8978 z"
         style="fill:#003399;fill-rule:evenodd"
         id="path8"
         inkscape:connector-curvature="0" />
      <path
         d="m 432.5497,356.4952 c 4.6669,-2.8765 0.8668,-6.2321 12.9826,-13.683 11.109,-6.832 16.7338,-5.3477 21.4966,-6.5292 -2.406,-4.2653 -8.0202,-6.6134 -12.7394,-7.946 -7.8681,-2.222 -10.6767,-3.0322 -15.1972,1.859 -4.7032,5.0891 -15.548,19.6036 -6.5426,26.2992 z"
         style="fill:#003399;fill-rule:evenodd"
         id="path10"
         inkscape:connector-curvature="0" />
      <path
         d="m 437.7497,352.8891 c 4.8555,2.3308 3.0202,0.6378 14.1035,-6.3888 3.2382,-2.053 9.2527,-4.6959 12.1525,-6.889 -5.4941,-2.7869 -23.5047,6.4727 -26.256,13.2778 z"
         style="fill:#003399;fill-rule:evenodd"
         id="path12"
         inkscape:connector-curvature="0" />
      <path
         d="m 429.9314,356.2324 c -19.3557,0 -33.1558,-11.319 -44.0758,8.7452 l -7.567,10.9203 c -3.9253,3.1423 -8.8255,4.1043 -14.3838,4.1043 2.1957,1.9082 0.6385,1.1948 3.0944,1.2271 0.4565,0.006 4.6437,-0.5623 5.3381,-0.6921 3.9885,-0.7443 5.7077,-1.1436 8.1243,-3.3463 4.1602,-3.7912 6.7239,-9.2543 10.9729,-12.7966 12.2137,-10.1816 19.974,-6.4054 39.2965,-6.4054 z"
         style="fill:#003399;fill-rule:evenodd"
         id="path14"
         inkscape:connector-curvature="0" />
    </g>
    <path
       d="m 91.9397,417.8934 v -49.0908 h 7.7816 v -40.9224 h -7.7816 v -4.6659 c 4.5602,-0.2071 7.9722,-2.7635 7.9722,-6.4551 0,-3.6971 -3.2471,-6.3228 -7.9722,-6.5284 v -10.114 c 0,-6.8745 5.6241,-12.4988 12.4986,-12.4988 h 81.3648 c 6.8745,0 12.4988,5.6243 12.4988,12.4988 v 9.2843 c -13.8517,4.6285 -22.4607,18.6543 -22.4607,33.6981 0,16.3277 10.372,26.3293 22.4607,28.124 v 46.6702 c 0,6.8745 -5.6243,12.4988 -12.4988,12.4988 h -81.3648 c -6.8745,0 -12.4986,-5.6243 -12.4986,-12.4988 z M 198.3019,314.8167 v 11.4974 c -5.7627,3.9431 -9.0072,10.8706 -9.0072,18.3061 0,7.0812 3.6361,11.4554 9.0072,11.6029 v 9.4137 c -9.5677,-2.1293 -16.0542,-9.9401 -16.0542,-23.0978 0,-13.7332 6.9373,-23.742 16.0542,-27.7223 z m -45.4428,37.511 27.0842,-41.5623 h -25.9609 l -16.8496,30.9533 c -1.8721,3.8691 -3.7443,7.6135 -5.4917,11.4828 h -0.3745 v -42.4361 h -21.842 v 96.4796 h 21.842 v -30.8285 l 6.3655,-8.9865 18.2225,39.815 h 24.9624 z"
       style="fill:#003399;fill-rule:evenodd"
       id="path17"
       inkscape:connector-curvature="0" />
    <path
       d="m 91.9397,310.2308 c -0.1984,-0.008 -0.3991,-0.0134 -0.6025,-0.0134 -4.9543,0 -8.5746,2.6895 -8.5746,6.5418 0,3.707 3.5253,6.4691 8.5746,6.4691 0.2029,0 0.4036,-0.005 0.6025,-0.014 z m 0,17.6494 h -8.9865 v 40.9224 h 8.9865 z"
       style="fill:#003399;fill-rule:evenodd"
       id="path19"
       inkscape:connector-curvature="0" />
    <path
       d="m 219.8047,325.0884 c -2.2423,-1.2007 -6.4864,-2.1613 -10.0899,-2.1613 -4.4623,0 -8.3038,1.2595 -11.4129,3.3871 v 29.9091 c 0.0934,0.003 0.1873,0.004 0.2817,0.004 4.5647,0 8.5687,-2.7216 11.0511,-7.3644 h 0.2401 c 0.3204,4.8028 3.0431,7.3644 7.6076,7.3644 9.6095,0 16.256,-8.5653 16.256,-22.894 0,-14.1686 -9.6895,-25.5355 -25.385,-25.5355 -3.5885,0 -6.9509,0.5674 -10.0515,1.6034 v 5.4155 c 2.8401,-1.2399 5.8911,-1.8959 9.0104,-1.8959 13.5333,0 20.1801,9.2857 20.1801,20.9728 0,11.287 -4.4044,16.4901 -8.0881,16.4101 -1.9219,0 -2.8027,-1.3609 -2.8027,-4.2426 0,-1.1207 0.1601,-2.4815 0.4004,-4.0824 z m -21.5028,46.135 c 1.3055,0.1938 2.6309,0.2933 3.9655,0.2933 6.086,0 10.6505,-0.8004 15.9357,-3.4421 l -1.5216,-4.8029 c -3.6835,2.0012 -8.3281,2.9617 -12.7324,2.9617 -1.9748,0 -3.8643,-0.1997 -5.6472,-0.5965 z m 10.4519,-31.2459 c -0.7207,4.8029 -3.6836,8.8855 -6.5665,8.8855 -2.6426,0 -3.8437,-2.0013 -3.8437,-5.2033 0,-7.7648 4.5645,-13.8484 9.5293,-13.8484 0.961,0 1.8419,0.0801 2.4823,0.4003 z"
       style="fill:#003399;fill-rule:evenodd"
       id="path21"
       inkscape:connector-curvature="0" />
    <text
       x="237.09151"
       y="372.38199"
       id="text25">
      <tspan
         font-size="103.5000"
         id="tspan23"
         style="font-size:103.5px;font-family:'Kozuka Gothic Pr6N H';fill:#003399">t</tspan>
    </text>
    <text
       x="338.673"
       y="370.3819"
       id="text29">
      <tspan
         font-size="99.0000"
         id="tspan27"
         style="font-size:99px;font-family:'Kozuka Gothic Pr6N H';fill:#003399">o</tspan>
    </text>
    <text
       x="277.77802"
       y="370.3819"
       id="text33">
      <tspan
         font-size="99.0000"
         id="tspan31"
         style="font-size:99px;font-family:'Kozuka Gothic Pr6N H';fill:#003399">o</tspan>
    </text>
    <text
       x="213.3459"
       y="413.7146"
       id="text37">
      <tspan
         font-size="25.0000"
         id="tspan35"
         style="font-size:25px;font-family:'Kozuka Gothic Pro H';fill:#003399">INFORMÁTICA</tspan>
    </text>
  </g>
  <g
     id="text926"
     style="font-size:4.03096581px;fill:#ffffff;stroke-width:0.33591384"
     aria-label="t"
     transform="matrix(1.4096791,0,0,1.4096791,98.468652,-114.33296)" />
  <g
     id="text930"
     style="font-size:4.03096581px;fill:#ffffff;stroke-width:0.33591384"
     aria-label="o"
     transform="matrix(1.4096791,0,0,1.4096791,98.468652,-114.33296)" />
  <g
     id="text934"
     style="font-size:4.03096581px;fill:#ffffff;stroke-width:0.33591384"
     aria-label="o"
     transform="matrix(1.4096791,0,0,1.4096791,98.468652,-114.33296)" />
</svg>
